<svg xmlns="http://www.w3.org/2000/svg" width="25" height="24" viewBox="32 20 25 24"><desc> Created with Sketch.</desc><g fill="none"><rect x="33" y="20" width="24" height="24" opacity="0.4"/><path d="M-4-5.5C-4-7.7-2.2-9.5 0-9.5 2.2-9.5 4-7.7 4-5.5L4 7C4 8.4 2.9 9.5 1.5 9.5 0.1 9.5-1 8.4-1 7L-1-3.5C-1-4.1-0.6-4.5 0-4.5 0.6-4.5 1-4.1 1-3.5L1 6 2.5 6 2.5-3.5C2.5-4.9 1.4-6 0-6 -1.4-6-2.5-4.9-2.5-3.5L-2.5 7C-2.5 9.2-0.7 11 1.5 11 3.7 11 5.5 9.2 5.5 7L5.5-5.5C5.5-8.5 3-11 0-11 -3-11-5.5-8.5-5.5-5.5L-5.5 6 -4 6 -4-5.5Z" transform="translate(32 20)translate(12.5 12)scale(-1 -1)rotate(45.000000)" fill="#577ca1"/></g></svg>
