<svg xmlns="http://www.w3.org/2000/svg" width="24" height="24" viewBox="442 20 24 24"><desc> Created with Sketch.</desc><g fill="none"><rect x="442" y="20" width="24" height="24"/><path d="M454 29.5C452.6 29.5 451.5 30.6 451.5 32 451.5 33.4 452.6 34.5 454 34.5 455.4 34.5 456.5 33.4 456.5 32 456.5 30.6 455.4 29.5 454 29.5L454 29.5ZM459.5 26C459.3 26 458.6 25.7 458.5 25.5L458.1 24.8C457.8 24.4 457.1 24 456.5 24L451.5 24C451 24 450.3 24.4 449.9 24.8L449.5 25.5C449.4 25.7 448.8 26 448.5 26L446.8 26C445.9 26 445 26.6 445 27.5L445 37.2C445 38.1 445.9 39 446.8 39L461.2 39C462.1 39 463 38.1 463 37.2L463 27.5C463 26.6 462.1 26 461.2 26L459.5 26ZM450 32C450 29.8 451.8 28 454 28 456.2 28 458 29.8 458 32 458 34.2 456.2 36 454 36 451.8 36 450 34.2 450 32ZM460.5 29C460.2 29 460 28.8 460 28.5 460 28.2 460.2 28 460.5 28 460.8 28 461 28.2 461 28.5 461 28.8 460.8 29 460.5 29L460.5 29Z" fill="#577ca1"/></g></svg>
