<svg xmlns="http://www.w3.org/2000/svg" width="24" height="24" viewBox="410 20 24 24"><desc> Created with Sketch.</desc><g fill="none"><rect x="410" y="20" width="24" height="24"/><path d="M422 39.5L422 39.5C426.1 39.5 429.5 36.1 429.5 32 429.5 27.9 426.1 24.5 422 24.5 417.9 24.5 414.5 27.9 414.5 32 414.5 36.1 417.9 39.5 422 39.5L422 39.5ZM422 41C417 41 413 37 413 32 413 27 417 23 422 23 427 23 431 27 431 32 431 37 427 41 422 41ZM419 36.1C419.7 36.6 420.7 37 422 37 423.3 37 424.3 36.6 425 36.1 425.5 35.8 425.8 35.4 425.9 35.1 426.1 34.7 426 34 426 34 426 34 418 34 418 34 418 34 417.9 34.7 418.1 35.1 418.2 35.4 418.5 35.8 419 36.1ZM419 32C419.6 32 420 31.3 420 30.5 420 29.7 419.6 29 419 29 418.4 29 418 29.7 418 30.5 418 31.3 418.4 32 419 32ZM425 32C425.6 32 426 31.3 426 30.5 426 29.7 425.6 29 425 29 424.4 29 424 29.7 424 30.5 424 31.3 424.4 32 425 32Z" fill="#577ca1"/></g></svg>
