<svg width="100%" height="100%" viewBox="0 0 14 20" version="1.1" xmlns="http://www.w3.org/2000/svg" xmlns:xlink="http://www.w3.org/1999/xlink">
    <g id="Page-1" stroke="none" stroke-width="1" fill="none" fill-rule="evenodd">
        <g id="inputGrey1" transform="translate(-840.000000, -726.000000)" fill="#577ca1">
            <g id="Group-8-Copy" transform="translate(325.000000, 704.000000)">
                <g id="send-copy" transform="translate(510.000000, 20.000000)">
                    <path d="M13,18.9289308 C16.3866359,18.4434152 19,15.5291408 19,12.0065834 L19,10.4993169 L19,11.0026086 L17.2999973,11.0026086 L17.2999973,11.9944476 C17.2999973,14.5818315 15.4451811,16.7366318 13,17.2053875 L13,17 L11,17 L11,17.2058382 C8.55099326,16.738378 6.69999695,14.5857754 6.69999695,11.9944476 L6.69999695,11.0026086 L5,11.0026086 L5,10.4993169 L5,12.0065834 C5,15.520231 7.60770586,18.4427345 11,18.9289578 L11,22 L13,22 L13,18.9289308 Z M9,4.99878564 C9,3.34260206 10.3465171,2 12,2 C13.6568542,2 15,3.34226429 15,4.99878564 L15,12.0012144 C15,13.6573979 13.6534829,15 12,15 C10.3431458,15 9,13.6577357 9,12.0012144 L9,4.99878564 Z" id="microphone"/>
                </g>
            </g>
        </g>
    </g>
</svg>
