<svg xmlns="http://www.w3.org/2000/svg" width="24" height="24" viewBox="1284 207 24 24"><g fill="none"><path d="M1298.5 222.9C1297.5 223.6 1296.3 224 1295 224 1291.7 224 1289 221.3 1289 218 1289 214.7 1291.7 212 1295 212 1298.3 212 1301 214.7 1301 218 1301 219.3 1300.6 220.5 1299.9 221.5L1302.7 224.2C1303 224.6 1303.1 225.3 1302.7 225.7 1302.3 226 1301.6 226 1301.2 225.7L1298.5 222.9ZM1295 222C1297.2 222 1299 220.2 1299 218 1299 215.8 1297.2 214 1295 214 1292.8 214 1291 215.8 1291 218 1291 220.2 1292.8 222 1295 222Z" fill="#9299A6"/></g></svg>
