<svg xmlns="http://www.w3.org/2000/svg" viewBox="0 0 80 80">
    <path fill="#fff" d="M 15 10 C 12.250484 10 10 12.250484 10 15 L 10 65 C 10 67.749516 12.250484 70 15 70 L 20 70 L 60 70 L 65 70 C 67.749516 70 70 67.749516 70 65 L 70 20.585938 L 59.414062 10 L 53 10 L 30 10 L 15 10 z M 15 12 L 22 12 L 22 27 C 22 28.64497 23.35503 30 25 30 L 53 30 C 54.64497 30 56 28.64497 56 27 L 56 13 L 56 12 L 58.585938 12 L 68 21.414062 L 68 65 C 68 66.668484 66.668484 68 65 68 L 60 68 L 60 45 C 60 42.250484 57.749516 40 55 40 L 25 40 C 22.250484 40 20 42.250484 20 45 L 20 68 L 15 68 C 13.331516 68 12 66.668484 12 65 L 12 15 C 12 13.331516 13.331516 12 15 12 z M 24 12 L 27.1875 12 C 27.07394 12.314892 27 12.648157 27 13 L 27 27 C 27 27.351843 27.07394 27.685108 27.1875 28 L 25 28 C 24.43497 28 24 27.56503 24 27 L 24 12 z M 30 12 L 53 12 C 53.56503 12 54 12.43497 54 13 L 54 27 C 54 27.56503 53.56503 28 53 28 L 30 28 C 29.43497 28 29 27.56503 29 27 L 29 13 C 29 12.43497 29.43497 12 30 12 z M 44 15 L 44 16 L 44 25 L 50 25 L 50 15 L 44 15 z M 46 17 L 48 17 L 48 23 L 46 23 L 46 17 z M 25 42 L 55 42 C 56.668484 42 58 43.331516 58 45 L 58 47 A 1 1 0 0 0 57 48 A 1 1 0 0 0 58 49 L 58 54 A 1 1 0 0 0 57 55 A 1 1 0 0 0 58 56 L 58 61 A 1 1 0 0 0 57 62 A 1 1 0 0 0 58 63 L 58 68 L 22 68 L 22 63 A 1 1 0 0 0 23 62 A 1 1 0 0 0 22 61 L 22 56 A 1 1 0 0 0 23 55 A 1 1 0 0 0 22 54 L 22 49 A 1 1 0 0 0 23 48 A 1 1 0 0 0 22 47 L 22 45 C 22 43.331516 23.331516 42 25 42 z M 26 47 A 1 1 0 0 0 25 48 A 1 1 0 0 0 26 49 A 1 1 0 0 0 27 48 A 1 1 0 0 0 26 47 z M 30 47 A 1 1 0 0 0 29 48 A 1 1 0 0 0 30 49 A 1 1 0 0 0 31 48 A 1 1 0 0 0 30 47 z M 34 47 A 1 1 0 0 0 33 48 A 1 1 0 0 0 34 49 A 1 1 0 0 0 35 48 A 1 1 0 0 0 34 47 z M 38 47 A 1 1 0 0 0 37 48 A 1 1 0 0 0 38 49 A 1 1 0 0 0 39 48 A 1 1 0 0 0 38 47 z M 42 47 A 1 1 0 0 0 41 48 A 1 1 0 0 0 42 49 A 1 1 0 0 0 43 48 A 1 1 0 0 0 42 47 z M 46 47 A 1 1 0 0 0 45 48 A 1 1 0 0 0 46 49 A 1 1 0 0 0 47 48 A 1 1 0 0 0 46 47 z M 50 47 A 1 1 0 0 0 49 48 A 1 1 0 0 0 50 49 A 1 1 0 0 0 51 48 A 1 1 0 0 0 50 47 z M 54 47 A 1 1 0 0 0 53 48 A 1 1 0 0 0 54 49 A 1 1 0 0 0 55 48 A 1 1 0 0 0 54 47 z M 26 54 A 1 1 0 0 0 25 55 A 1 1 0 0 0 26 56 A 1 1 0 0 0 27 55 A 1 1 0 0 0 26 54 z M 30 54 A 1 1 0 0 0 29 55 A 1 1 0 0 0 30 56 A 1 1 0 0 0 31 55 A 1 1 0 0 0 30 54 z M 34 54 A 1 1 0 0 0 33 55 A 1 1 0 0 0 34 56 A 1 1 0 0 0 35 55 A 1 1 0 0 0 34 54 z M 38 54 A 1 1 0 0 0 37 55 A 1 1 0 0 0 38 56 A 1 1 0 0 0 39 55 A 1 1 0 0 0 38 54 z M 42 54 A 1 1 0 0 0 41 55 A 1 1 0 0 0 42 56 A 1 1 0 0 0 43 55 A 1 1 0 0 0 42 54 z M 46 54 A 1 1 0 0 0 45 55 A 1 1 0 0 0 46 56 A 1 1 0 0 0 47 55 A 1 1 0 0 0 46 54 z M 50 54 A 1 1 0 0 0 49 55 A 1 1 0 0 0 50 56 A 1 1 0 0 0 51 55 A 1 1 0 0 0 50 54 z M 54 54 A 1 1 0 0 0 53 55 A 1 1 0 0 0 54 56 A 1 1 0 0 0 55 55 A 1 1 0 0 0 54 54 z M 26 61 A 1 1 0 0 0 25 62 A 1 1 0 0 0 26 63 A 1 1 0 0 0 27 62 A 1 1 0 0 0 26 61 z M 30 61 A 1 1 0 0 0 29 62 A 1 1 0 0 0 30 63 A 1 1 0 0 0 31 62 A 1 1 0 0 0 30 61 z M 34 61 A 1 1 0 0 0 33 62 A 1 1 0 0 0 34 63 A 1 1 0 0 0 35 62 A 1 1 0 0 0 34 61 z M 38 61 A 1 1 0 0 0 37 62 A 1 1 0 0 0 38 63 A 1 1 0 0 0 39 62 A 1 1 0 0 0 38 61 z M 42 61 A 1 1 0 0 0 41 62 A 1 1 0 0 0 42 63 A 1 1 0 0 0 43 62 A 1 1 0 0 0 42 61 z M 46 61 A 1 1 0 0 0 45 62 A 1 1 0 0 0 46 63 A 1 1 0 0 0 47 62 A 1 1 0 0 0 46 61 z M 50 61 A 1 1 0 0 0 49 62 A 1 1 0 0 0 50 63 A 1 1 0 0 0 51 62 A 1 1 0 0 0 50 61 z M 54 61 A 1 1 0 0 0 53 62 A 1 1 0 0 0 54 63 A 1 1 0 0 0 55 62 A 1 1 0 0 0 54 61 z M 14 62 L 14 64 L 16 64 L 16 62 L 14 62 z M 64 62 L 64 64 L 66 64 L 66 62 L 64 62 z"></path>
</svg>
